<svg xmlns="http://www.w3.org/2000/svg" width="900" height="520" viewBox="0 0 900 520">
<rect width="100%" height="100%" fill="white"/>
<text x="450.0" y="32" font-size="22" text-anchor="middle" font-family="Arial">Resource quality versus delivered cost (base / low-rate scenario)</text>
<line x1="80" y1="460" x2="870" y2="460" stroke="black"/>
<line x1="80" y1="60" x2="80" y2="460" stroke="black"/>
<circle cx="471.2" cy="142.9" r="4" fill="#d62728" fill-opacity="0.75"/>
<circle cx="811.6" cy="183.7" r="4" fill="#d62728" fill-opacity="0.75"/>
<circle cx="354.4" cy="309.9" r="4" fill="#d62728" fill-opacity="0.75"/>
<circle cx="452.6" cy="285.5" r="4" fill="#d62728" fill-opacity="0.75"/>
<circle cx="480.0" cy="260.0" r="4" fill="#d62728" fill-opacity="0.75"/>
<circle cx="630.9" cy="231.3" r="4" fill="#d62728" fill-opacity="0.75"/>
<circle cx="323.9" cy="303.6" r="4" fill="#d62728" fill-opacity="0.75"/>
<circle cx="388.8" cy="407.0" r="4" fill="#d62728" fill-opacity="0.75"/>
<circle cx="198.1" cy="163.9" r="4" fill="#d62728" fill-opacity="0.75"/>
<circle cx="243.5" cy="246.0" r="4" fill="#d62728" fill-opacity="0.75"/>
<circle cx="781.1" cy="273.3" r="4" fill="#d62728" fill-opacity="0.75"/>
<circle cx="313.8" cy="241.8" r="4" fill="#d62728" fill-opacity="0.75"/>
<circle cx="216.9" cy="303.5" r="4" fill="#d62728" fill-opacity="0.75"/>
<circle cx="588.9" cy="221.1" r="4" fill="#d62728" fill-opacity="0.75"/>
<circle cx="288.8" cy="318.2" r="4" fill="#d62728" fill-opacity="0.75"/>
<circle cx="782.2" cy="432.4" r="4" fill="#d62728" fill-opacity="0.75"/>
<circle cx="371.2" cy="176.7" r="4" fill="#d62728" fill-opacity="0.75"/>
<circle cx="624.8" cy="190.7" r="4" fill="#d62728" fill-opacity="0.75"/>
<circle cx="259.9" cy="272.7" r="4" fill="#d62728" fill-opacity="0.75"/>
<circle cx="496.6" cy="351.6" r="4" fill="#d62728" fill-opacity="0.75"/>
<circle cx="827.7" cy="275.4" r="4" fill="#d62728" fill-opacity="0.75"/>
<circle cx="122.3" cy="87.6" r="4" fill="#d62728" fill-opacity="0.75"/>
<circle cx="712.2" cy="230.7" r="4" fill="#d62728" fill-opacity="0.75"/>
<circle cx="459.8" cy="325.0" r="4" fill="#d62728" fill-opacity="0.75"/>
<circle cx="345.3" cy="356.4" r="4" fill="#d62728" fill-opacity="0.75"/>
<circle cx="166.5" cy="305.3" r="4" fill="#d62728" fill-opacity="0.75"/>
<circle cx="324.6" cy="356.1" r="4" fill="#d62728" fill-opacity="0.75"/>
<circle cx="519.6" cy="191.8" r="4" fill="#d62728" fill-opacity="0.75"/>
<circle cx="495.3" cy="382.1" r="4" fill="#d62728" fill-opacity="0.75"/>
<circle cx="543.2" cy="333.3" r="4" fill="#d62728" fill-opacity="0.75"/>
<text x="450.0" y="502" font-size="15" text-anchor="middle" font-family="Arial">Hybrid renewable capacity factor</text>
<text transform="translate(20,260.0) rotate(-90)" font-size="15" text-anchor="middle" font-family="Arial">Delivered cost to Europe (USD/kg-H2)</text>
</svg>