<svg xmlns="http://www.w3.org/2000/svg" width="900" height="520" viewBox="0 0 900 520">
<rect width="100%" height="100%" fill="white"/>
<text x="450.0" y="32" font-size="22" text-anchor="middle" font-family="Arial">Eight least-cost export sites in Africa (base / low-rate scenario)</text>
<line x1="80" y1="60" x2="80" y2="400" stroke="black"/>
<line x1="80" y1="400" x2="880" y2="400" stroke="black"/>
<rect x="97.5" y="94.6" width="65.0" height="305.4" fill="#54A24B"/>
<text transform="translate(130.0,416) rotate(40)" font-size="12" text-anchor="start" font-family="Arial">hex_015</text>
<text x="130.0" y="88.6" font-size="12" text-anchor="middle" font-family="Arial">3.03</text>
<rect x="197.5" y="86.4" width="65.0" height="313.6" fill="#54A24B"/>
<text transform="translate(230.0,416) rotate(40)" font-size="12" text-anchor="start" font-family="Arial">hex_007</text>
<text x="230.0" y="80.4" font-size="12" text-anchor="middle" font-family="Arial">3.11</text>
<rect x="297.5" y="78.4" width="65.0" height="321.6" fill="#54A24B"/>
<text transform="translate(330.0,416) rotate(40)" font-size="12" text-anchor="start" font-family="Arial">hex_028</text>
<text x="330.0" y="72.4" font-size="12" text-anchor="middle" font-family="Arial">3.19</text>
<rect x="397.5" y="70.1" width="65.0" height="329.9" fill="#54A24B"/>
<text transform="translate(430.0,416) rotate(40)" font-size="12" text-anchor="start" font-family="Arial">hex_024</text>
<text x="430.0" y="64.1" font-size="12" text-anchor="middle" font-family="Arial">3.28</text>
<rect x="497.5" y="70.0" width="65.0" height="330.0" fill="#54A24B"/>
<text transform="translate(530.0,416) rotate(40)" font-size="12" text-anchor="start" font-family="Arial">hex_026</text>
<text x="530.0" y="64.0" font-size="12" text-anchor="middle" font-family="Arial">3.28</text>
<rect x="597.5" y="68.6" width="65.0" height="331.4" fill="#54A24B"/>
<text transform="translate(630.0,416) rotate(40)" font-size="12" text-anchor="start" font-family="Arial">hex_019</text>
<text x="630.0" y="62.6" font-size="12" text-anchor="middle" font-family="Arial">3.29</text>
<rect x="697.5" y="62.7" width="65.0" height="337.3" fill="#54A24B"/>
<text transform="translate(730.0,416) rotate(40)" font-size="12" text-anchor="start" font-family="Arial">hex_029</text>
<text x="730.0" y="56.7" font-size="12" text-anchor="middle" font-family="Arial">3.35</text>
<rect x="797.5" y="60.0" width="65.0" height="340.0" fill="#54A24B"/>
<text transform="translate(830.0,416) rotate(40)" font-size="12" text-anchor="start" font-family="Arial">hex_023</text>
<text x="830.0" y="54.0" font-size="12" text-anchor="middle" font-family="Arial">3.38</text>
<text transform="translate(20,260.0) rotate(-90)" font-size="15" text-anchor="middle" font-family="Arial">Delivered cost to Europe (USD/kg-H2)</text>
</svg>