<svg xmlns="http://www.w3.org/2000/svg" width="900" height="700" viewBox="0 0 900 700">
<rect width="100%" height="100%" fill="white"/>
<text x="450.0" y="35" font-size="24" text-anchor="middle" font-family="Arial">TM-score heatmap (7xg4 chains vs 6n40 chain A)</text>
<rect x="120.0" y="80.0" width="720.0" height="55.6" fill="rgb(76,120,168)" stroke="white"/>
<text x="480.0" y="111.8" font-size="11" text-anchor="middle" font-family="Arial">0.055</text>
<rect x="120.0" y="135.6" width="720.0" height="55.6" fill="rgb(77,120,168)" stroke="white"/>
<text x="480.0" y="167.3" font-size="11" text-anchor="middle" font-family="Arial">0.054</text>
<rect x="120.0" y="191.1" width="720.0" height="55.6" fill="rgb(82,124,171)" stroke="white"/>
<text x="480.0" y="222.9" font-size="11" text-anchor="middle" font-family="Arial">0.052</text>
<rect x="120.0" y="246.7" width="720.0" height="55.6" fill="rgb(107,143,182)" stroke="white"/>
<text x="480.0" y="278.4" font-size="11" text-anchor="middle" font-family="Arial">0.044</text>
<rect x="120.0" y="302.2" width="720.0" height="55.6" fill="rgb(153,177,203)" stroke="white"/>
<text x="480.0" y="334.0" font-size="11" text-anchor="middle" font-family="Arial">0.029</text>
<rect x="120.0" y="357.8" width="720.0" height="55.6" fill="rgb(164,185,208)" stroke="white"/>
<text x="480.0" y="389.6" font-size="11" text-anchor="middle" font-family="Arial">0.026</text>
<rect x="120.0" y="413.3" width="720.0" height="55.6" fill="rgb(217,224,232)" stroke="white"/>
<text x="480.0" y="445.1" font-size="11" text-anchor="middle" font-family="Arial">0.009</text>
<rect x="120.0" y="468.9" width="720.0" height="55.6" fill="rgb(227,231,236)" stroke="white"/>
<text x="480.0" y="500.7" font-size="11" text-anchor="middle" font-family="Arial">0.006</text>
<rect x="120.0" y="524.4" width="720.0" height="55.6" fill="rgb(241,242,243)" stroke="white"/>
<text x="480.0" y="556.2" font-size="11" text-anchor="middle" font-family="Arial">0.001</text>
<text x="112" y="111.8" font-size="12" text-anchor="end" font-family="Arial">E</text>
<text x="112" y="167.3" font-size="12" text-anchor="end" font-family="Arial">F</text>
<text x="112" y="222.9" font-size="12" text-anchor="end" font-family="Arial">L</text>
<text x="112" y="278.4" font-size="12" text-anchor="end" font-family="Arial">G</text>
<text x="112" y="334.0" font-size="12" text-anchor="end" font-family="Arial">H</text>
<text x="112" y="389.6" font-size="12" text-anchor="end" font-family="Arial">A</text>
<text x="112" y="445.1" font-size="12" text-anchor="end" font-family="Arial">B</text>
<text x="112" y="500.7" font-size="12" text-anchor="end" font-family="Arial">C</text>
<text x="112" y="556.2" font-size="12" text-anchor="end" font-family="Arial">D</text>
<text transform="translate(480.0,590.0) rotate(45)" font-size="12" text-anchor="start" font-family="Arial">6n40:A</text>
</svg>