<svg xmlns="http://www.w3.org/2000/svg" width="1100" height="650" viewBox="0 0 1100 650">
<rect width="100%" height="100%" fill="white"/>
<text x="550.0" y="35" font-size="24" text-anchor="middle" font-family="Arial">Top query-normalized TM-scores across all chain comparisons</text>
<line x1="110" y1="70" x2="110" y2="500" stroke="black"/>
<line x1="110" y1="500" x2="1070" y2="500" stroke="black"/>
<line x1="105" y1="500.0" x2="110" y2="500.0" stroke="black"/>
<line x1="110" y1="500.0" x2="1070" y2="500.0" stroke="#ddd"/>
<text x="100" y="504.0" font-size="12" text-anchor="end" font-family="Arial">0.00</text>
<line x1="105" y1="414.0" x2="110" y2="414.0" stroke="black"/>
<line x1="110" y1="414.0" x2="1070" y2="414.0" stroke="#ddd"/>
<text x="100" y="418.0" font-size="12" text-anchor="end" font-family="Arial">0.01</text>
<line x1="105" y1="328.0" x2="110" y2="328.0" stroke="black"/>
<line x1="110" y1="328.0" x2="1070" y2="328.0" stroke="#ddd"/>
<text x="100" y="332.0" font-size="12" text-anchor="end" font-family="Arial">0.02</text>
<line x1="105" y1="241.99999999999994" x2="110" y2="241.99999999999994" stroke="black"/>
<line x1="110" y1="241.99999999999994" x2="1070" y2="241.99999999999994" stroke="#ddd"/>
<text x="100" y="245.99999999999994" font-size="12" text-anchor="end" font-family="Arial">0.03</text>
<line x1="105" y1="156.00000000000006" x2="110" y2="156.00000000000006" stroke="black"/>
<line x1="110" y1="156.00000000000006" x2="1070" y2="156.00000000000006" stroke="#ddd"/>
<text x="100" y="160.00000000000006" font-size="12" text-anchor="end" font-family="Arial">0.04</text>
<line x1="105" y1="69.99999999999989" x2="110" y2="69.99999999999989" stroke="black"/>
<line x1="110" y1="69.99999999999989" x2="1070" y2="69.99999999999989" stroke="#ddd"/>
<text x="100" y="73.99999999999989" font-size="12" text-anchor="end" font-family="Arial">0.05</text>
<rect x="126.0" y="70.0" width="74.7" height="430.0" fill="#F58518"/>
<text transform="translate(163.3,518) rotate(55)" font-size="12" text-anchor="start" font-family="Arial">E→A</text>
<rect x="232.7" y="72.9" width="74.7" height="427.1" fill="#F58518"/>
<text transform="translate(270.0,518) rotate(55)" font-size="12" text-anchor="start" font-family="Arial">F→A</text>
<rect x="339.3" y="86.9" width="74.7" height="413.1" fill="#F58518"/>
<text transform="translate(376.7,518) rotate(55)" font-size="12" text-anchor="start" font-family="Arial">L→A</text>
<rect x="446.0" y="150.4" width="74.7" height="349.6" fill="#F58518"/>
<text transform="translate(483.3,518) rotate(55)" font-size="12" text-anchor="start" font-family="Arial">G→A</text>
<rect x="552.7" y="267.8" width="74.7" height="232.2" fill="#F58518"/>
<text transform="translate(590.0,518) rotate(55)" font-size="12" text-anchor="start" font-family="Arial">H→A</text>
<rect x="659.3" y="295.0" width="74.7" height="205.0" fill="#F58518"/>
<text transform="translate(696.7,518) rotate(55)" font-size="12" text-anchor="start" font-family="Arial">A→A</text>
<rect x="766.0" y="430.7" width="74.7" height="69.3" fill="#F58518"/>
<text transform="translate(803.3,518) rotate(55)" font-size="12" text-anchor="start" font-family="Arial">B→A</text>
<rect x="872.7" y="454.6" width="74.7" height="45.4" fill="#F58518"/>
<text transform="translate(910.0,518) rotate(55)" font-size="12" text-anchor="start" font-family="Arial">C→A</text>
<rect x="979.3" y="490.7" width="74.7" height="9.3" fill="#F58518"/>
<text transform="translate(1016.7,518) rotate(55)" font-size="12" text-anchor="start" font-family="Arial">D→A</text>
<text x="550.0" y="625" font-size="16" text-anchor="middle" font-family="Arial">Chain pair</text>
<text transform="translate(25,325.0) rotate(-90)" font-size="16" text-anchor="middle" font-family="Arial">TM-score</text>
</svg>