<svg xmlns="http://www.w3.org/2000/svg" width="1000" height="500" viewBox="0 0 1000 500">
<rect width="100%" height="100%" fill="white"/>
<text x="500.0" y="35" font-size="24" text-anchor="middle" font-family="Arial">Per-residue distance profile for best chain pair E→A</text>
<line x1="70" y1="70" x2="70" y2="440" stroke="black"/>
<line x1="70" y1="440" x2="970" y2="440" stroke="black"/>
<polyline fill="none" stroke="#54A24B" stroke-width="2" points="70.0,214.4 72.8,214.1 75.6,237.4 78.4,240.0 81.1,240.1 83.9,257.8 86.7,279.2 89.5,281.1 92.3,290.6 95.1,312.9 97.9,334.8 100.7,324.3 103.4,325.1 106.2,340.4 109.0,326.6 111.8,316.1 114.6,304.9 117.4,299.4 120.2,302.0 122.9,282.2 125.7,277.3 128.5,274.6 131.3,283.2 134.1,266.7 136.9,264.8 139.7,267.5 142.4,292.3 145.2,279.5 148.0,291.6 150.8,273.0 153.6,257.4 156.4,240.2 159.2,216.2 162.0,203.4 164.7,214.9 167.5,203.0 170.3,200.6 173.1,206.3 175.9,220.8 178.7,226.3 181.5,227.1 184.2,252.8 187.0,267.7 189.8,271.1 192.6,274.8 195.4,277.5 198.2,258.3 201.0,253.5 203.7,232.5 206.5,160.9 209.3,153.3 212.1,150.5 214.9,125.3 217.7,124.2 220.5,113.0 223.3,130.0 226.0,150.9 228.8,140.5 231.6,158.2 234.4,173.9 237.2,185.5 240.0,209.8 242.8,255.7 245.5,264.3 248.3,258.2 251.1,226.0 253.9,252.7 256.7,260.9 259.5,270.0 262.3,285.7 265.0,281.0 267.8,319.0 270.6,333.7 273.4,370.6 276.2,380.4 279.0,384.1 281.8,383.4 284.6,391.1 287.3,399.4 290.1,398.7 292.9,397.5 295.7,391.5 298.5,387.7 301.3,400.4 304.1,395.3 306.8,391.0 309.6,400.1 312.4,376.5 315.2,387.2 318.0,388.5 320.8,373.5 323.6,392.9 326.3,396.4 329.1,393.6 331.9,384.8 334.7,389.3 337.5,385.2 340.3,351.3 343.1,336.7 345.9,335.2 348.6,272.5 351.4,327.5 354.2,344.0 357.0,342.4 359.8,312.5 362.6,363.7 365.4,345.2 368.1,346.7 370.9,342.0 373.7,302.5 376.5,295.7 379.3,279.9 382.1,253.2 384.9,223.1 387.6,215.4 390.4,215.2 393.2,189.3 396.0,175.9 398.8,130.9 401.6,153.8 404.4,158.4 407.2,164.0 409.9,188.1 412.7,199.4 415.5,221.6 418.3,224.1 421.1,244.3 423.9,254.8 426.7,267.2 429.4,284.0 432.2,295.7 435.0,309.8 437.8,308.6 440.6,312.3 443.4,317.3 446.2,295.9 448.9,286.0 451.7,295.7 454.5,299.9 457.3,302.4 460.1,342.3 462.9,348.9 465.7,362.0 468.5,371.9 471.2,341.7 474.0,345.0 476.8,337.6 479.6,349.7 482.4,339.5 485.2,330.5 488.0,331.4 490.7,310.9 493.5,297.1 496.3,277.0 499.1,256.5 501.9,248.4 504.7,233.0 507.5,216.6 510.2,214.6 513.0,207.6 515.8,191.9 518.6,172.5 521.4,177.6 524.2,209.1 527.0,199.3 529.8,193.6 532.5,221.8 535.3,226.8 538.1,242.1 540.9,264.5 543.7,273.5 546.5,279.4 549.3,288.7 552.0,312.5 554.8,303.1 557.6,309.2 560.4,313.7 563.2,319.1 566.0,298.5 568.8,292.3 571.5,296.1 574.3,289.9 577.1,265.0 579.9,250.7 582.7,257.4 585.5,243.9 588.3,222.9 591.1,218.6 593.8,190.7 596.6,181.1 599.4,185.3 602.2,193.1 605.0,206.2 607.8,208.3 610.6,175.6 613.3,159.6 616.1,156.0 618.9,148.0 621.7,128.6 624.5,132.9 627.3,119.6 630.1,114.8 632.8,100.1 635.6,113.5 638.4,88.2 641.2,90.9 644.0,91.5 646.8,89.4 649.6,70.0 652.4,80.1 655.1,107.6 657.9,100.6 660.7,86.5 663.5,95.7 666.3,113.6 669.1,96.6 671.9,114.0 674.6,153.4 677.4,158.9 680.2,149.7 683.0,177.2 685.8,188.7 688.6,191.4 691.4,190.1 694.1,177.9 696.9,190.3 699.7,190.5 702.5,202.9 705.3,246.3 708.1,265.7 710.9,296.4 713.7,304.1 716.4,307.5 719.2,321.8 722.0,342.3 724.8,358.2 727.6,370.5 730.4,396.3 733.2,417.2 735.9,429.0 738.7,405.6 741.5,395.3 744.3,379.3 747.1,353.8 749.9,333.8 752.7,319.3 755.4,299.6 758.2,303.9 761.0,294.9 763.8,287.6 766.6,284.2 769.4,279.4 772.2,272.5 775.0,280.1 777.7,282.5 780.5,257.7 783.3,274.5 786.1,271.1 788.9,271.9 791.7,266.5 794.5,297.2 797.2,311.5 800.0,318.6 802.8,339.0 805.6,333.3 808.4,347.3 811.2,350.3 814.0,329.6 816.7,317.2 819.5,309.5 822.3,304.0 825.1,308.1 827.9,305.0 830.7,317.7 833.5,385.5 836.3,370.3 839.0,382.5 841.8,363.9 844.6,345.7 847.4,317.0 850.2,271.1 853.0,264.3 855.8,254.4 858.5,204.0 861.3,187.0 864.1,185.6 866.9,185.7 869.7,202.7 872.5,215.2 875.3,228.6 878.0,211.1 880.8,222.0 883.6,231.4 886.4,234.3 889.2,251.0 892.0,230.4 894.8,224.8 897.6,278.3 900.3,277.4 903.1,293.0 905.9,306.6 908.7,309.1 911.5,325.6 914.3,305.1 917.1,287.4 919.8,272.9 922.6,239.1 925.4,245.6 928.2,239.5 931.0,206.9 933.8,203.0 936.6,221.4 939.3,198.3 942.1,199.9 944.9,183.9 947.7,170.9 950.5,191.5 953.3,197.7 956.1,186.0 958.9,192.5 961.6,198.5 964.4,189.0 967.2,195.4 970.0,172.4"/>
<line x1="70" y1="406.2" x2="970" y2="406.2" stroke="#999" stroke-dasharray="4,4"/>
<text x="965" y="401.2" font-size="12" text-anchor="end" font-family="Arial">8 Å refinement cutoff</text>
</svg>